<svg xmlns="http://www.w3.org/2000/svg" width="386.429" height="174.579" viewBox="0 0 386.429 174.579">
  <g id="Group_82" data-name="Group 82" transform="translate(0 0)">
    <rect id="Rectangle_1463" data-name="Rectangle 1463" width="11.679" height="40.429" transform="translate(337.686 70.31)" fill="#f2f2f2"/>
    <path id="Path_103" data-name="Path 103" d="M732.172,212.846l-28.406-33.794-57.02.521-34.589,33.691.7.449h-.25V283.79H732.1V213.713Z" transform="translate(-375.094 -109.713)" fill="#f2f2f2"/>
    <path id="Path_104" data-name="Path 104" d="M792.641,179.238l-35.487,41.605V283.9h63.788V212.929Z" transform="translate(-463.94 -109.827)" fill="#e6e6e6"/>
    <rect id="Rectangle_1464" data-name="Rectangle 1464" width="13.027" height="11.514" transform="translate(318.819 139.204)" fill="#3f3d56"/>
    <rect id="Rectangle_1465" data-name="Rectangle 1465" width="13.027" height="11.332" transform="translate(318.819 119.274)" fill="#3f3d56"/>
    <rect id="Rectangle_1466" data-name="Rectangle 1466" width="13.027" height="11.514" transform="translate(318.819 139.204)" fill="#fff"/>
    <rect id="Rectangle_1467" data-name="Rectangle 1467" width="13.027" height="11.332" transform="translate(318.819 119.274)" fill="#fff"/>
    <rect id="Rectangle_1468" data-name="Rectangle 1468" width="13.027" height="11.514" transform="translate(260.925 136.149)" fill="#fff"/>
    <rect id="Rectangle_1469" data-name="Rectangle 1469" width="13.027" height="11.332" transform="translate(260.925 116.218)" fill="#fff"/>
    <rect id="Rectangle_1470" data-name="Rectangle 1470" width="11.679" height="40.429" transform="translate(245.518 70.31)" fill="#f2f2f2"/>
    <path id="Path_105" data-name="Path 105" d="M494.172,212.846l-28.406-33.794-57.02.521-34.589,33.691.7.449h-.25V283.79H494.1V213.713Z" transform="translate(-229.261 -109.713)" fill="#f2f2f2"/>
    <path id="Path_106" data-name="Path 106" d="M554.642,179.238l-35.488,41.605V283.9h63.788V212.929Z" transform="translate(-318.108 -109.827)" fill="#e6e6e6"/>
    <rect id="Rectangle_1471" data-name="Rectangle 1471" width="13.027" height="11.514" transform="translate(226.651 139.204)" fill="#3f3d56"/>
    <rect id="Rectangle_1472" data-name="Rectangle 1472" width="13.027" height="11.332" transform="translate(226.651 119.274)" fill="#3f3d56"/>
    <rect id="Rectangle_1473" data-name="Rectangle 1473" width="13.027" height="11.514" transform="translate(226.651 139.204)" fill="#fff"/>
    <rect id="Rectangle_1474" data-name="Rectangle 1474" width="13.027" height="11.332" transform="translate(226.651 119.274)" fill="#fff"/>
    <rect id="Rectangle_1475" data-name="Rectangle 1475" width="13.027" height="11.514" transform="translate(168.758 136.149)" fill="#fff"/>
    <rect id="Rectangle_1476" data-name="Rectangle 1476" width="13.027" height="11.332" transform="translate(168.758 116.218)" fill="#fff"/>
    <rect id="Rectangle_1477" data-name="Rectangle 1477" width="15.607" height="54.023" transform="translate(147.218 35.419)" fill="#f2f2f2"/>
    <path id="Path_107" data-name="Path 107" d="M193.321,133.269,155.363,88.112l-76.193.7-46.22,45.019.934.6h-.333v93.64H193.219v-93.64Z" transform="translate(-20.19 -53.99)" fill="#f2f2f2"/>
    <path id="Path_108" data-name="Path 108" d="M274.122,88.36l-47.42,55.6v84.264h85.236v-94.84Z" transform="translate(-138.91 -54.142)" fill="#e6e6e6"/>
    <rect id="Rectangle_1478" data-name="Rectangle 1478" width="17.407" height="15.386" transform="translate(122.007 127.478)" fill="#3f3d56"/>
    <rect id="Rectangle_1479" data-name="Rectangle 1479" width="17.407" height="15.142" transform="translate(122.007 100.847)" fill="#3f3d56"/>
    <rect id="Rectangle_1480" data-name="Rectangle 1480" width="17.407" height="15.386" transform="translate(122.007 127.478)" fill="#fff"/>
    <rect id="Rectangle_1481" data-name="Rectangle 1481" width="17.407" height="15.142" transform="translate(122.007 100.847)" fill="#fff"/>
    <rect id="Rectangle_1482" data-name="Rectangle 1482" width="17.407" height="15.386" transform="translate(44.647 123.396)" fill="#fff"/>
    <rect id="Rectangle_1483" data-name="Rectangle 1483" width="17.407" height="15.142" transform="translate(44.647 96.764)" fill="#fff"/>
    <rect id="Rectangle_1484" data-name="Rectangle 1484" width="373.298" height="0.775" transform="translate(0 173.732)" fill="#3f3d56"/>
    <ellipse id="Ellipse_137" data-name="Ellipse 137" cx="11.269" cy="22.993" rx="11.269" ry="22.993" transform="translate(47.545 113.504)" fill="#32d7c0"/>
    <path id="Path_109" data-name="Path 109" d="M252.439,588.291c-4.513-27.079-.045-54.06,0-54.329l.878.149c-.045.268-4.488,27.107,0,54.035Z" transform="translate(-192.585 -414.157)" fill="#bdf22e"/>
    <rect id="Rectangle_1485" data-name="Rectangle 1485" width="11.556" height="0.891" transform="translate(58.544 137.003) rotate(-28.142)" fill="#bdf22e"/>
    <rect id="Rectangle_1486" data-name="Rectangle 1486" width="0.891" height="11.557" transform="translate(47.789 135.068) rotate(-61.842)" fill="#bdf22e"/>
    <ellipse id="Ellipse_138" data-name="Ellipse 138" cx="22.041" cy="44.972" rx="22.041" ry="44.972" transform="translate(9.697 56.065)" fill="#bdf22e"/>
    <path id="Path_110" data-name="Path 110" d="M183.133,507.493c-8.816-52.894-.089-105.595,0-106.121l.878.149c-.089.525-8.79,53.084,0,105.826Z" transform="translate(-148.94 -332.914)" fill="#3f3d56"/>
    <rect id="Rectangle_1487" data-name="Rectangle 1487" width="22.603" height="0.891" transform="translate(31.411 102.402) rotate(-28.142)" fill="#3f3d56"/>
    <rect id="Rectangle_1488" data-name="Rectangle 1488" width="0.891" height="22.603" transform="translate(10.377 97.869) rotate(-61.842)" fill="#3f3d56"/>
    <ellipse id="Ellipse_139" data-name="Ellipse 139" cx="30.161" cy="61.541" rx="30.161" ry="61.541" transform="translate(53.779 12.429)" fill="#bdf22e"/>
    <path id="Path_111" data-name="Path 111" d="M318.393,445.717c-12.059-72.354-.122-144.444,0-145.164l.878.149c-.122.718-12.034,72.667,0,144.869Z" transform="translate(-230.932 -271.138)" fill="#3f3d56"/>
    <rect id="Rectangle_1489" data-name="Rectangle 1489" width="30.931" height="0.891" transform="translate(83.571 75.982) rotate(-28.142)" fill="#3f3d56"/>
    <rect id="Rectangle_1490" data-name="Rectangle 1490" width="0.891" height="30.931" transform="matrix(0.472, -0.882, 0.882, 0.472, 54.786, 69.487)" fill="#3f3d56"/>
    <ellipse id="Ellipse_140" data-name="Ellipse 140" cx="11.269" cy="22.993" rx="11.269" ry="22.993" transform="translate(326.044 113.504)" fill="#32d7c0"/>
    <path id="Path_112" data-name="Path 112" d="M968.022,588.291c4.513-27.079.045-54.06,0-54.329l-.878.149c.045.268,4.488,27.107,0,54.035Z" transform="translate(-631.75 -414.157)" fill="#bdf22e"/>
    <rect id="Rectangle_1491" data-name="Rectangle 1491" width="0.891" height="11.556" transform="translate(326.97 132.34) rotate(-61.858)" fill="#bdf22e"/>
    <rect id="Rectangle_1492" data-name="Rectangle 1492" width="11.557" height="0.891" transform="translate(337.727 139.739) rotate(-28.158)" fill="#bdf22e"/>
    <ellipse id="Ellipse_141" data-name="Ellipse 141" cx="22.041" cy="44.972" rx="22.041" ry="44.972" transform="translate(342.348 56.065)" fill="#bdf22e"/>
    <path id="Path_113" data-name="Path 113" d="M1034.29,507.493c8.816-52.894.089-105.595,0-106.121l-.878.149c.089.525,8.79,53.084,0,105.826Z" transform="translate(-672.355 -332.914)" fill="#3f3d56"/>
    <rect id="Rectangle_1493" data-name="Rectangle 1493" width="0.891" height="22.603" transform="translate(344.361 92.528) rotate(-61.858)" fill="#3f3d56"/>
    <rect id="Rectangle_1494" data-name="Rectangle 1494" width="22.603" height="0.891" transform="translate(365.401 107.746) rotate(-28.158)" fill="#3f3d56"/>
    <ellipse id="Ellipse_142" data-name="Ellipse 142" cx="30.161" cy="61.541" rx="30.161" ry="61.541" transform="translate(282.026 12.429)" fill="#bdf22e"/>
    <path id="Path_114" data-name="Path 114" d="M896.734,445.717c12.059-72.354.122-144.444,0-145.164l-.878.149c.122.718,12.034,72.667,0,144.869Z" transform="translate(-588.069 -271.138)" fill="#3f3d56"/>
    <rect id="Rectangle_1495" data-name="Rectangle 1495" width="0.891" height="30.931" transform="translate(284.859 62.181) rotate(-61.858)" fill="#3f3d56"/>
    <rect id="Rectangle_1496" data-name="Rectangle 1496" width="30.931" height="0.891" transform="matrix(0.882, -0.472, 0.472, 0.882, 313.648, 83.3)" fill="#3f3d56"/>
    <path id="Path_115" data-name="Path 115" d="M682.245,321.487l3.565-2.851c-2.769-.305-3.907,1.2-4.373,2.4a6.072,6.072,0,0,0-4.519.279l7.133,2.589A5.4,5.4,0,0,0,682.245,321.487Z" transform="translate(-453.916 -282.194)" fill="#3f3d56"/>
    <path id="Path_116" data-name="Path 116" d="M457.245,256.487l3.565-2.851c-2.77-.306-3.907,1.2-4.373,2.4a6.072,6.072,0,0,0-4.519.279l7.133,2.589A5.4,5.4,0,0,0,457.245,256.487Z" transform="translate(-316.049 -242.365)" fill="#3f3d56"/>
    <path id="Path_117" data-name="Path 117" d="M824.245,227.487l3.565-2.851c-2.769-.306-3.907,1.2-4.373,2.4a6.072,6.072,0,0,0-4.519.279l7.133,2.589a5.4,5.4,0,0,0-1.806-2.418Z" transform="translate(-540.926 -224.596)" fill="#3f3d56"/>
    <path id="Path_118" data-name="Path 118" d="M831.652,660.424a5.39,5.39,0,0,0-2.7.724,5.8,5.8,0,0,0-9.693,4.31h17.794A5.418,5.418,0,0,0,831.652,660.424Z" transform="translate(-541.135 -491.172)" fill="#3f3d56"/>
    <path id="Path_119" data-name="Path 119" d="M364.652,660.424a5.39,5.39,0,0,0-2.7.724,5.8,5.8,0,0,0-9.693,4.31h17.794A5.418,5.418,0,0,0,364.652,660.424Z" transform="translate(-254.984 -491.172)" fill="#3f3d56"/>
    <path id="Path_120" data-name="Path 120" d="M603.652,660.424a5.39,5.39,0,0,0-2.7.724,5.8,5.8,0,0,0-9.693,4.31h17.794A5.418,5.418,0,0,0,603.652,660.424Z" transform="translate(-401.43 -491.172)" fill="#3f3d56"/>
    <path id="Path_121" data-name="Path 121" d="M390.529,404.228H339.191v1.656H347.2v15.733h1.656V405.884h31.185v15.733h1.656V405.884h8.835Z" transform="translate(-207.837 -247.688)" fill="#3f3d56"/>
    <rect id="Rectangle_1497" data-name="Rectangle 1497" width="51.338" height="1.656" transform="translate(131.455 151.586)" fill="#3f3d56"/>
    <rect id="Rectangle_1498" data-name="Rectangle 1498" width="51.338" height="1.656" transform="translate(131.455 147.446)" fill="#3f3d56"/>
    <rect id="Rectangle_1499" data-name="Rectangle 1499" width="51.338" height="1.656" transform="translate(131.455 143.306)" fill="#3f3d56"/>
    <path id="Path_122" data-name="Path 122" d="M597.529,404.228H546.191v1.656H554.2v15.733h1.656V405.884h31.185v15.733h1.656V405.884h8.834Z" transform="translate(-334.674 -247.688)" fill="#3f3d56"/>
    <rect id="Rectangle_1500" data-name="Rectangle 1500" width="51.338" height="1.656" transform="translate(211.618 151.586)" fill="#3f3d56"/>
    <rect id="Rectangle_1501" data-name="Rectangle 1501" width="51.338" height="1.656" transform="translate(211.618 147.446)" fill="#3f3d56"/>
    <rect id="Rectangle_1502" data-name="Rectangle 1502" width="51.338" height="1.656" transform="translate(211.618 143.306)" fill="#3f3d56"/>
  </g>
</svg>
